<?xml version="1.0" encoding="UTF-8"?>
<svg version="1.1" xmlns="http://www.w3.org/2000/svg" width="242" height="232">
<path d="M0 0 C3.45064709 1.32022419 6.68240276 2.82206449 9.9296875 4.58203125 C11.35172485 5.35148071 11.35172485 5.35148071 12.80249023 6.13647461 C13.81641846 6.68956299 14.83034668 7.24265137 15.875 7.8125 C16.93855713 8.3907251 18.00211426 8.9689502 19.09790039 9.56469727 C28.16189594 14.50887748 37.15573175 19.57207864 46.1328125 24.671875 C53.39411801 28.79666928 60.67482981 32.8869835 67.97363281 36.94506836 C72.80628082 39.63380984 77.61493663 42.34697596 82.3671875 45.17578125 C83.18727295 45.65571533 84.0073584 46.13564941 84.85229492 46.63012695 C86.35971473 47.51440636 87.85814164 48.41428456 89.3449707 49.33276367 C93.37186428 51.67507349 93.37186428 51.67507349 97.87207031 51.30102539 C101.02874149 49.98804532 103.78710641 48.48475352 106.69140625 46.68359375 C107.78686768 46.01005859 108.8823291 45.33652344 110.01098633 44.64257812 C110.87791611 44.10419312 110.87791611 44.10419312 111.76235962 43.55493164 C114.86976536 41.62601902 117.98989422 39.71789482 121.109375 37.80859375 C121.75558304 37.41255951 122.40179108 37.01652527 123.06758118 36.60848999 C130.09443039 32.31200127 137.19815751 28.14945097 144.3125 24 C155.46862701 17.49016247 155.46862701 17.49016247 166.5625 10.875 C167.66078125 10.215 168.7590625 9.555 169.890625 8.875 C171.50508092 7.90145874 173.11917339 6.92728403 174.72851562 5.9453125 C176.41893793 4.91488822 178.11560518 3.89473022 179.8125 2.875 C180.76769531 2.29492188 181.72289062 1.71484375 182.70703125 1.1171875 C183.46371094 0.74851562 184.22039062 0.37984375 185 0 C185.99 0.495 185.99 0.495 187 1 C181.05123652 16.78641195 175.09570781 32.57026398 169.13365269 48.35166073 C167.50056903 52.67446513 165.86834139 56.99759212 164.23632812 61.32080078 C162.05425243 67.09988899 159.86859557 72.87761141 157.68032837 78.65435791 C156.85464699 80.83553542 156.03007436 83.01713299 155.20663452 85.19915771 C154.05612168 88.24719899 152.90160908 91.29369605 151.74609375 94.33984375 C151.40942688 95.23441788 151.07276001 96.128992 150.72589111 97.05067444 C145.97735724 109.53133627 145.97735724 109.53133627 141.92578125 113.18359375 C141.34473633 113.71500977 140.76369141 114.24642578 140.16503906 114.79394531 C139.55370117 115.33631836 138.94236328 115.87869141 138.3125 116.4375 C137.68182617 117.00952148 137.05115234 117.58154297 136.40136719 118.17089844 C134.60982729 119.79093735 132.8079458 121.39831205 131 123 C129.83791016 124.03060547 129.83791016 124.03060547 128.65234375 125.08203125 C127.41293812 126.16873804 126.16962402 127.25100832 124.921875 128.328125 C122.58894926 130.35758073 120.29488755 132.427647 118 134.5 C113.70315292 138.37636051 109.36471669 142.20043587 105 146 C103.49968066 147.31213495 101.99967399 148.62462751 100.5 149.9375 C99.33333333 150.95833333 98.16666667 151.97916667 97 153 C94.34034633 151.73674614 91.99006361 150.3685394 89.63671875 148.6015625 C89.00483643 148.12831543 88.3729541 147.65506836 87.72192383 147.16748047 C87.05056396 146.65846191 86.3792041 146.14944336 85.6875 145.625 C84.98326904 145.09406738 84.27903809 144.56313477 83.5534668 144.01611328 C78.11074916 139.89168203 72.76245387 135.65754132 67.44726562 131.37060547 C62.45640991 127.34755325 57.39378396 123.42927686 52.29296875 119.546875 C51.79015381 119.14178711 51.28733887 118.73669922 50.76928711 118.31933594 C48.96461835 116.91634497 48.96461835 116.91634497 46.68579102 115.68847656 C36.55321068 109.21528855 34.22292313 98.05690407 30.5625 87.25 C29.80538237 85.09226406 29.04490252 82.93570525 28.28125 80.78027344 C26.67290924 76.23179222 25.07995955 71.67832167 23.49658203 67.12109375 C19.71227622 56.27296254 15.73237768 45.49591413 11.77023315 34.71179199 C10.51522003 31.29147945 9.2654956 27.86928521 8.01782227 24.44628906 C7.62921524 23.38055664 7.24060822 22.31482422 6.84022522 21.21679688 C6.11434632 19.22573349 5.38884721 17.23453159 4.6638031 15.24316406 C4.34097855 14.35886719 4.01815399 13.47457031 3.68554688 12.56347656 C3.40674683 11.79859924 3.12794678 11.03372192 2.84069824 10.2456665 C2.23068413 8.61620162 1.57588863 7.00327974 0.89465332 5.40228271 C0 3 0 3 0 0 Z " fill="#048DBB" transform="translate(15,70)"/>
<path d="M0 0 C0.7216333 0.35529785 1.4432666 0.7105957 2.18676758 1.07666016 C3.35115356 1.6826001 3.35115356 1.6826001 4.5390625 2.30078125 C6.2588575 3.15676672 7.97892093 4.01221302 9.69921875 4.8671875 C11.04717529 5.5480542 11.04717529 5.5480542 12.42236328 6.24267578 C15.9868112 8.02458234 19.58776376 9.72328434 23.19189453 11.4230957 C33.90446275 16.48259115 44.50504492 21.7590583 55.08868408 27.08108521 C64.5177893 31.82144714 73.98716861 36.46011885 83.54492188 40.9375 C89.88684034 43.92760604 96.03982655 47.20036037 102.1640625 50.61328125 C98.51492689 53.66919295 94.76308638 56.15450505 90.66015625 58.5625 C90.03337982 58.93217392 89.40660339 59.30184784 88.76083374 59.682724 C87.41276921 60.47746211 86.06371821 61.2705289 84.71377563 62.06207275 C81.09077682 64.1867823 77.47525358 66.32414026 73.859375 68.4609375 C73.12421158 68.89504944 72.38904816 69.32916138 71.63160706 69.77642822 C64.70926996 73.86977596 57.83940501 78.04620981 50.9765625 82.23828125 C37.82908641 90.258742 24.57253508 98.08818736 11.23657227 105.79125977 C9.22849922 106.98206224 7.24510873 108.2157855 5.29272461 109.49584961 C4.42139893 110.06311768 3.55007324 110.63038574 2.65234375 111.21484375 C1.90509033 111.72225098 1.15783691 112.2296582 0.38793945 112.75244141 C-1.8359375 113.61328125 -1.8359375 113.61328125 -4.51831055 112.97167969 C-7.0872633 111.77094902 -9.45731664 110.36965362 -11.84863281 108.84863281 C-15.00719324 106.88520336 -18.26532802 105.10356494 -21.51196289 103.29077148 C-24.49922741 101.61938902 -27.47490339 99.92868305 -30.44921875 98.234375 C-36.97185683 94.52743803 -43.5250929 90.877073 -50.0859375 87.23828125 C-51.21104736 86.61397217 -52.33615723 85.98966309 -53.49536133 85.34643555 C-56.94182625 83.43467286 -60.38879258 81.5238175 -63.8359375 79.61328125 C-80.5444048 70.35282565 -97.22293116 61.04410873 -113.8359375 51.61328125 C-111.80028123 49.40927816 -109.9777415 48.01073356 -107.26782227 46.73486328 C-106.55649643 46.396147 -105.84517059 46.05743073 -105.11228943 45.70845032 C-103.95649132 45.17020882 -103.95649132 45.17020882 -102.77734375 44.62109375 C-101.97003311 44.23902267 -101.16272247 43.8569516 -100.33094788 43.46330261 C-97.68969662 42.21532924 -95.04417717 40.9767069 -92.3984375 39.73828125 C-90.5621101 38.87312191 -88.72601133 38.00747716 -86.89013672 37.14135742 C-75.68134181 31.8595913 -64.45295813 26.61915431 -53.20507812 21.42114258 C-46.704212 18.41627002 -40.21600014 15.38644263 -33.73828125 12.33203125 C-32.96178223 11.96595261 -32.1852832 11.59987396 -31.38525391 11.22270203 C-27.56842641 9.42261935 -23.75264258 7.62035695 -19.93798828 5.81567383 C-18.55112151 5.16093882 -17.16424069 4.50623358 -15.77734375 3.8515625 C-15.14843735 3.5532251 -14.51953094 3.2548877 -13.87156677 2.94750977 C-12.19819613 2.15837091 -10.51731846 1.38520579 -8.8359375 0.61328125 C-7.94688721 0.18789063 -7.05783691 -0.2375 -6.1418457 -0.67578125 C-3.3789963 -1.52759887 -2.53793714 -1.29258339 0 0 Z " fill="#048DBA" transform="translate(113.8359375,1.38671875)"/>
</svg>
